<?xml version="1.0" encoding="UTF-8"?>
<svg id="Capa_1" xmlns="http://www.w3.org/2000/svg" version="1.1" viewBox="0 0 283.5 283.5">
  <!-- Generator: Adobe Illustrator 29.0.0, SVG Export Plug-In . SVG Version: 2.1.0 Build 186)  -->
  <g>
    <path d="M163.2,125.5c1.8,6.9,1.9,12.5-3.2,18-5.3,5.7-11.3,5.8-18.6,6-7.7,0-13.8.9-19.6-5.4-8.6-9.5-.5-15.4,0-24.9,1.1.8,2.8,2.4,4.4,2.1,3.4-.4,4.9-4.4,6.3-7.1,3.2-5.7,4.6-11.9,12-12.8.4,0,.2,0,.4.5-5.6,11.5-1.3,15.5,10,10.5l.2,13c3.6.5,4.5.5,8,0h.1Z"/>
    <path d="M206.3,102.2c-3-35.7-34.4-62.1-70.1-59-35.5,3.1-61.8,34.4-58.8,69.9,3,35.5,34.2,61.9,69.7,59,35.7-2.9,62.2-34.3,59.2-69.9ZM165.3,53.9c4.3,0,6.8,1.6,10.2,4.2,1,.8,2.7,2.4,2.9,3.7l-.8.4c-2.1.5-4.6,1.1-6.7.7-5-.8-6.5-4.7-5.6-9.1h0ZM147,48.4c2.6,0,7.6.4,9.9,1.4,5.3,2.4,3.9,9.9,0,12.8-2.6.8-4.6,1.1-7.3.5-6-1.4-8.2-11.5-2.5-14.6h0ZM124.4,51.8c1.4-2.5,7.1-3,9.9-3.4,1.4-.3,3.2,0,4.1,1.1,2.4,3.1,1.7,9.3-1.2,11.9-2.2,2-4.5,1.8-7.3,1.7-5.5-.5-8.1-6.6-5.5-11.4h0ZM116.3,54.2h.6c.6,0,1.1.3,1.4.7,1.6,2.1-.4,5.6-2.2,6.9-2.6,1.8-4.6,1.5-7.5,1-1.2-.3-2.7-.8-4-1.1,3.5-3.2,6.9-6.6,11.7-7.5ZM117.2,163.6c-2.9.1-9.9-.5-9.4-5.4,0-1.3,1.9-2.5,2.9-3.1,5.1-.1,13.8,3.7,6.5,8.6h0ZM139,163.6c0,1.2-.2,2.1-.9,3.1-.9.6-2.2.4-3.3.4-2.7-.2-6.7-.7-9.1-1.8-2.7-1.1-2.8-4.3-1.4-6.5,1.2-2,2.1-2.3,4.2-2.9,5.4-.3,11.1.2,10.5,7.6h0ZM159,163.7c-.8,1.9-3.7,2.2-5.6,2.5-2.2.4-5.6,1.2-7.6.4-3.7-1.4-1.7-7.3.4-9.2.8-.7,1.8-1.1,2.8-1.4,4-.5,13.1.3,10,7.7h0ZM167.8,163.5c-1.6,0-2.2,0-3.5-1-1.7-1.3-1.5-3.4-.3-4.9,1.6-2.1,3.5-2.2,6-2.5,4.3-.8,8.2,6.8-2.2,8.4ZM186.5,146.2c-2.1,2.2-4.7,3.9-7.7,4.8-8.5,2.6-33.4.7-43.7,1.1-10.7.4-23.4,2.8-33-.9-14.1-6.1-11.7-26.7-1.7-35.7,8.5-7.6,12.7-12.1,7-23.2,5.9,4,9.3,7.9,14.9,12.1.6-12.4,11.8-25.3,23.9-28.2l.4.2c-.7,1.4-2.9,3.8-2.9,5.5-.2,9,9.9,12.6,17.4,10.5,2.4-.7,3.9-1.5,6.2-2.6-.1.8-.5,2.9-.4,3.6,1.4,7.7,8.3,11.3,11.9,18.9,3.1-1.7,4.3-2.8,6.4-5.6-2.4,13.4,4.6,15.9,5.3,28.6.2,4.3-.9,7.8-3.8,11.1l-.2-.2Z"/>
    <path d="M139.7,18.8c-49.2,1.1-88,41.9-86.8,91.1,1.2,49.1,42.1,87.9,91.3,86.6,49-1.4,87.6-42.1,86.4-91.1-1.2-49-41.9-87.7-90.9-86.6h0ZM148.3,190.9c-45.9,3.5-86.1-30.8-89.6-76.8-3.5-45.9,30.8-86.1,76.8-89.6,45.9-3.5,86,30.8,89.6,76.8,3.5,45.9-30.8,86-76.8,89.6Z"/>
    <path d="M163.2,125.5c1.8,6.9,1.9,12.5-3.2,18-5.3,5.7-11.3,5.8-18.6,6-7.7,0-13.8.9-19.6-5.4-8.6-9.5-.5-15.4,0-24.9,1.1.8,2.8,2.4,4.4,2.1,3.4-.4,4.9-4.4,6.3-7.1,3.2-5.7,4.6-11.9,12-12.8.4,0,.2,0,.4.5-5.6,11.5-1.3,15.5,10,10.5l.2,13c3.6.5,4.5.5,8,0h.1Z"/>
    <path d="M206.3,102.2c-3-35.7-34.4-62.1-70.1-59-35.5,3.1-61.8,34.4-58.8,69.9,3,35.5,34.2,61.9,69.7,59,35.7-2.9,62.2-34.3,59.2-69.9ZM165.3,53.9c4.3,0,6.8,1.6,10.2,4.2,1,.8,2.7,2.4,2.9,3.7l-.8.4c-2.1.5-4.6,1.1-6.7.7-5-.8-6.5-4.7-5.6-9.1h0ZM147,48.4c2.6,0,7.6.4,9.9,1.4,5.3,2.4,3.9,9.9,0,12.8-2.6.8-4.6,1.1-7.3.5-6-1.4-8.2-11.5-2.5-14.6h0ZM124.4,51.8c1.4-2.5,7.1-3,9.9-3.4,1.4-.3,3.2,0,4.1,1.1,2.4,3.1,1.7,9.3-1.2,11.9-2.2,2-4.5,1.8-7.3,1.7-5.5-.5-8.1-6.6-5.5-11.4h0ZM116.3,54.2h.6c.6,0,1.1.3,1.4.7,1.6,2.1-.4,5.6-2.2,6.9-2.6,1.8-4.6,1.5-7.5,1-1.2-.3-2.7-.8-4-1.1,3.5-3.2,6.9-6.6,11.7-7.5ZM117.2,163.6c-2.9.1-9.9-.5-9.4-5.4,0-1.3,1.9-2.5,2.9-3.1,5.1-.1,13.8,3.7,6.5,8.6h0ZM139,163.6c0,1.2-.2,2.1-.9,3.1-.9.6-2.2.4-3.3.4-2.7-.2-6.7-.7-9.1-1.8-2.7-1.1-2.8-4.3-1.4-6.5,1.2-2,2.1-2.3,4.2-2.9,5.4-.3,11.1.2,10.5,7.6h0ZM159,163.7c-.8,1.9-3.7,2.2-5.6,2.5-2.2.4-5.6,1.2-7.6.4-3.7-1.4-1.7-7.3.4-9.2.8-.7,1.8-1.1,2.8-1.4,4-.5,13.1.3,10,7.7h0ZM167.8,163.5c-1.6,0-2.2,0-3.5-1-1.7-1.3-1.5-3.4-.3-4.9,1.6-2.1,3.5-2.2,6-2.5,4.3-.8,8.2,6.8-2.2,8.4ZM186.5,146.2c-2.1,2.2-4.7,3.9-7.7,4.8-8.5,2.6-33.4.7-43.7,1.1-10.7.4-23.4,2.8-33-.9-14.1-6.1-11.7-26.7-1.7-35.7,8.5-7.6,12.7-12.1,7-23.2,5.9,4,9.3,7.9,14.9,12.1.6-12.4,11.8-25.3,23.9-28.2l.4.2c-.7,1.4-2.9,3.8-2.9,5.5-.2,9,9.9,12.6,17.4,10.5,2.4-.7,3.9-1.5,6.2-2.6-.1.8-.5,2.9-.4,3.6,1.4,7.7,8.3,11.3,11.9,18.9,3.1-1.7,4.3-2.8,6.4-5.6-2.4,13.4,4.6,15.9,5.3,28.6.2,4.3-.9,7.8-3.8,11.1l-.2-.2Z"/>
    <path d="M160,143.5c-5.3,5.7-11.3,5.8-18.6,6-7.7,0-13.8.9-19.6-5.4-8.6-9.5-.5-15.4,0-24.9,1.1.8,2.8,2.4,4.4,2.1,3.4-.4,4.9-4.4,6.3-7.1,3.2-5.7,4.6-11.9,12-12.8.4,0,.2,0,.4.5-5.6,11.5-1.3,15.5,10,10.5l.2,13c3.6.5,4.5.5,8,0,1.8,6.9,1.9,12.5-3.2,18h.1Z"/>
  </g>
  <g>
    <path d="M31.8,229.2c-1.4-2.4-3.3-4.3-5.7-5.6-2.4-1.4-5.1-2-8-2s-5.5.7-8,2c-2.4,1.4-4.4,3.2-5.8,5.6-1.4,2.4-2.1,5.1-2.1,8.2s.7,5.8,2.1,8.2c1.4,2.4,3.3,4.3,5.8,5.7,2.4,1.4,5.1,2,8,2s5.6-.7,8-2c2.4-1.4,4.3-3.2,5.7-5.7,1.4-2.4,2.1-5.2,2.1-8.2s-.7-5.8-2.1-8.2ZM27.3,243.4c-.9,1.7-2.2,3.1-3.8,4-1.6.9-3.4,1.4-5.5,1.4s-3.9-.5-5.5-1.4-2.9-2.3-3.8-4c-.9-1.7-1.4-3.8-1.4-6.1s.5-4.3,1.4-6c.9-1.7,2.2-3.1,3.8-4s3.4-1.4,5.5-1.4,3.9.5,5.5,1.4,2.9,2.2,3.8,4c.9,1.7,1.4,3.7,1.4,6s-.4,4.3-1.4,6.1Z"/>
    <path d="M47.5,229.1c1.5-.8,3.2-1.2,5-1.2s4.1.5,5.9,1.6c1.8,1.1,3.2,2.5,4.2,4.4s1.5,4.1,1.5,6.6-.5,4.7-1.5,6.6c-1,2-2.4,3.5-4.2,4.6s-3.7,1.6-5.9,1.6-3.5-.4-5-1.1-2.7-1.7-3.6-2.8v15.3h-5.1v-36.3h5.1v3.6c.9-1.1,2-2.1,3.5-2.9h0ZM57.9,236.1c-.7-1.2-1.6-2.2-2.8-2.8-1.1-.6-2.4-1-3.7-1s-2.5.3-3.6,1-2.1,1.6-2.8,2.9c-.7,1.3-1,2.7-1,4.4s.3,3.2,1,4.4c.7,1.3,1.6,2.2,2.8,2.9,1.1.7,2.4,1,3.6,1s2.5-.3,3.7-1c1.1-.7,2.1-1.6,2.8-2.9.7-1.3,1-2.8,1-4.5s-.4-3.2-1-4.4h0Z"/>
    <path d="M91.6,242.6h-18.8c0,2,.9,3.5,2.2,4.7,1.3,1.2,2.9,1.8,4.8,1.8,2.7,0,4.7-1.1,5.8-3.4h5.5c-.7,2.3-2.1,4.1-4,5.6-2,1.4-4.4,2.2-7.3,2.2s-4.5-.5-6.3-1.6c-1.9-1.1-3.3-2.5-4.4-4.5-1.1-1.9-1.6-4.1-1.6-6.7s.5-4.8,1.5-6.7,2.5-3.4,4.3-4.4c1.9-1,4-1.6,6.4-1.6s4.4.5,6.2,1.5c1.8,1,3.2,2.4,4.2,4.3,1,1.8,1.5,3.9,1.5,6.3s0,1.8-.2,2.5h.2ZM86.4,238.4c0-1.9-.7-3.4-2-4.5s-2.9-1.7-4.9-1.7-3.3.6-4.5,1.7c-1.3,1.1-2,2.6-2.2,4.5h13.6Z"/>
    <path d="M104.8,229c1.2-.7,2.7-1,4.4-1v5.3h-1.3c-2,0-3.5.5-4.5,1.5s-1.5,2.8-1.5,5.3v13h-5.1v-24.6h5.1v3.6c.7-1.3,1.7-2.2,3-2.9v-.2Z"/>
    <path d="M113.7,234c1-1.9,2.4-3.4,4.2-4.4,1.8-1.1,3.7-1.6,5.9-1.6s3.6.4,5.1,1.1c1.4.8,2.6,1.7,3.5,2.8v-3.6h5.1v24.6h-5.1v-3.7c-.9,1.2-2,2.1-3.5,2.9-1.5.8-3.2,1.2-5.1,1.2s-4-.5-5.8-1.6-3.1-2.6-4.2-4.6c-1-1.9-1.5-4.2-1.5-6.6s.5-4.7,1.5-6.6h0ZM131.3,236.2c-.7-1.3-1.6-2.2-2.7-2.9-1.1-.7-2.4-1-3.7-1s-2.5.3-3.7,1c-1.1.6-2,1.6-2.7,2.8s-1,2.7-1,4.4.3,3.2,1,4.5,1.6,2.3,2.8,2.9c1.1.7,2.4,1,3.6,1s2.5-.3,3.7-1c1.1-.7,2-1.6,2.7-2.9.7-1.3,1-2.7,1-4.4s-.4-3.2-1-4.4h0Z"/>
    <path d="M176.4,235.6c-.7,1.4-1.9,2.5-3.6,3.4s-3.7,1.3-6.3,1.3h-5.6v12.6h-5.1v-31h10.7c2.4,0,4.4.4,6.1,1.2s2.9,1.9,3.7,3.3c.8,1.4,1.2,3,1.2,4.7s-.4,3.1-1.1,4.5h0ZM170.8,234.9c1-.9,1.4-2.1,1.4-3.7,0-3.4-1.9-5.1-5.8-5.1h-5.6v10.1h5.6c1.9,0,3.4-.4,4.3-1.3h.1Z"/>
    <path d="M190.4,229c1.2-.7,2.7-1,4.4-1v5.3h-1.3c-2,0-3.5.5-4.5,1.5s-1.5,2.8-1.5,5.3v13h-5.1v-24.6h5.1v3.6c.7-1.3,1.7-2.2,3-2.9v-.2Z"/>
    <path d="M199.8,224.2c-.6-.6-.9-1.4-.9-2.3s.3-1.7.9-2.3,1.4-.9,2.3-.9,1.7.3,2.3.9.9,1.4.9,2.3-.3,1.7-.9,2.3-1.4.9-2.3.9-1.7-.3-2.3-.9ZM204.6,228.3v24.6h-5.1v-24.6h5.1Z"/>
    <path d="M246.3,229.2c1.5.8,2.7,2,3.6,3.6s1.3,3.5,1.3,5.7v14.5h-5v-13.8c0-2.2-.6-3.9-1.7-5.1-1.1-1.2-2.6-1.8-4.5-1.8s-3.4.6-4.5,1.8-1.7,2.9-1.7,5.1v13.8h-5v-13.8c0-2.2-.6-3.9-1.7-5.1s-2.6-1.8-4.5-1.8-3.4.6-4.5,1.8-1.7,2.9-1.7,5.1v13.8h-5.1v-24.6h5.1v2.8c.8-1,1.9-1.8,3.2-2.4,1.3-.6,2.6-.8,4.1-.8s3.7.4,5.3,1.3c1.5.8,2.7,2,3.6,3.6.7-1.5,1.9-2.7,3.5-3.6s3.3-1.3,5.1-1.3,3.7.4,5.2,1.2h-.1Z"/>
    <path d="M257.5,234c1-1.9,2.4-3.4,4.2-4.4,1.8-1.1,3.7-1.6,5.9-1.6s3.6.4,5.1,1.1c1.4.8,2.6,1.7,3.5,2.8v-3.6h5.1v24.6h-5.1v-3.7c-.9,1.2-2,2.1-3.5,2.9s-3.2,1.2-5.1,1.2-4.1-.5-5.8-1.6c-1.8-1.1-3.1-2.6-4.2-4.6-1-1.9-1.5-4.2-1.5-6.6s.5-4.7,1.5-6.6h-.1ZM275.1,236.2c-.7-1.3-1.6-2.2-2.7-2.9s-2.4-1-3.7-1-2.5.3-3.7,1c-1.1.6-2,1.6-2.7,2.8s-1,2.7-1,4.4.3,3.2,1,4.5,1.6,2.3,2.8,2.9c1.1.7,2.4,1,3.6,1s2.5-.3,3.7-1c1.1-.7,2-1.6,2.7-2.9.7-1.3,1-2.7,1-4.4s-.4-3.2-1-4.4h0Z"/>
    <path d="M24.5,215.8l-3.5,4.4c-.9-.2-1.9-.2-2.9-.2s-.5,0-.8,0l3.3-5.4,3.9,1.2Z"/>
  </g>
</svg>