<?xml version="1.0" encoding="UTF-8"?>
<svg id="Capa_1" xmlns="http://www.w3.org/2000/svg" version="1.1" viewBox="0 0 283.5 283.5" fill="#F65B7F">
  <!-- Generator: Adobe Illustrator 29.0.0, SVG Export Plug-In . SVG Version: 2.1.0 Build 186)  -->
  <path d="M175.6,169.8c2.8,10.9,3,19.7-5.1,28.3-8.3,9-17.8,9.1-29.2,9.4-12.2.1-21.8,1.5-30.8-8.5-13.5-14.9-.8-24.3,0-39.2,1.7,1.2,4.4,3.7,7,3.3,5.4-.7,7.7-7,10-11.1,5-8.9,7.3-18.7,18.9-20.1.6.2.3,0,.7.9-8.8,18-2.1,24.4,15.8,16.5l.3,20.4c5.6.8,7.1.8,12.6.1h-.2Z"/>
  <path d="M243.3,133.1c-4.7-56.1-54.2-97.8-110.3-92.9-55.9,4.9-97.3,54.1-92.6,110,4.7,55.9,53.8,97.5,109.7,92.9,56.1-4.6,97.9-53.9,93.2-110ZM178.7,57.1c6.8,0,10.7,2.4,16.1,6.7,1.6,1.3,4.3,3.8,4.5,5.9l-1.2.7c-3.3.7-7.2,1.7-10.6,1.1-7.8-1.3-10.2-7.3-8.8-14.3h0ZM150,48.4c4.1,0,12,.6,15.6,2.1,8.4,3.7,6.1,15.5-.1,20.1-4.1,1.3-7.2,1.7-11.4.7-9.5-2.2-13-18.2-4-23h-.1ZM114.4,53.9c2.2-3.9,11.2-4.7,15.6-5.3,2.2-.4,5-.2,6.5,1.7,3.7,4.9,2.6,14.6-1.9,18.8-3.4,3.1-7.1,2.9-11.4,2.7-8.7-.9-12.8-10.4-8.7-17.9h-.1ZM101.7,57.7h1c.9,0,1.7.5,2.3,1.2,2.6,3.3-.6,8.8-3.5,10.9-4.2,2.9-7.3,2.3-11.9,1.6-1.9-.4-4.3-1.2-6.2-1.7,5.5-5.1,10.8-10.4,18.4-11.9h-.1ZM103.2,229.7c-4.6.2-15.6-.8-14.9-8.5.2-2,2.9-3.9,4.6-5,8.1-.2,21.8,5.8,10.2,13.5h.1ZM137.4,229.7c-.1,1.9-.3,3.3-1.4,4.9-1.5.9-3.4.6-5.2.6-4.2-.3-10.5-1.2-14.4-2.8-4.3-1.7-4.4-6.8-2.2-10.3,1.9-3.1,3.3-3.6,6.6-4.5,8.5-.5,17.4.4,16.5,12h0ZM168.9,229.9c-1.2,2.9-5.8,3.5-8.8,4-3.4.6-8.7,1.8-11.9.7-5.9-2.2-2.7-11.5.7-14.6,1.3-1.1,2.8-1.7,4.4-2.3,6.2-.7,20.6.5,15.7,12.2h0ZM182.7,229.6c-2.4,0-3.5,0-5.5-1.5-2.7-2-2.3-5.4-.4-7.8,2.6-3.3,5.6-3.5,9.4-3.9,6.8-1.3,12.9,10.7-3.4,13.2h-.1ZM212.2,202.4c-3.3,3.5-7.4,6.1-12.1,7.5-13.4,4-52.5,1.1-68.8,1.7-16.8.6-36.8,4.5-52-1.4-22.2-9.7-18.5-42-2.7-56.1,13.4-12,20-19.1,11-36.5,9.3,6.3,14.7,12.4,23.4,19,.9-19.5,18.6-39.9,37.6-44.3l.6.3c-1,2.2-4.5,6-4.6,8.6-.4,14.1,15.6,19.8,27.4,16.5,3.8-1.1,6.2-2.3,9.7-4.1-.2,1.3-.8,4.5-.7,5.6,2.2,12.1,13,17.8,18.7,29.7,4.8-2.7,6.8-4.4,10.1-8.9-3.8,21.1,7.3,25,8.3,45,.3,6.8-1.4,12.3-6.1,17.4h.2Z"/>
  <path d="M138.5,1.9C61.2,3.7,0,67.9,2,145.2c2,77.3,66.3,138.4,143.6,136.3,77.1-2.1,137.9-66.2,135.9-143.3C279.6,61.1,215.6.2,138.5,1.9ZM152,272.8c-72.3,5.6-135.4-48.5-141-120.8C5.5,79.7,59.6,16.6,131.9,11c72.3-5.6,135.4,48.5,141,120.8s-48.5,135.4-120.8,141h0Z"/>
  <path d="M175.6,169.8c2.8,10.9,3,19.7-5.1,28.3-8.3,9-17.8,9.1-29.2,9.4-12.2.1-21.8,1.5-30.8-8.5-13.5-14.9-.8-24.3,0-39.2,1.7,1.2,4.4,3.7,7,3.3,5.4-.7,7.7-7,10-11.1,5-8.9,7.3-18.7,18.9-20.1.6.2.3,0,.7.9-8.8,18-2.1,24.4,15.8,16.5l.3,20.4c5.6.8,7.1.8,12.6.1h-.2Z"/>
  <path d="M243.3,133.1c-4.7-56.1-54.2-97.8-110.3-92.9-55.9,4.9-97.3,54.1-92.6,110,4.7,55.9,53.8,97.5,109.7,92.9,56.1-4.6,97.9-53.9,93.2-110ZM178.7,57.1c6.8,0,10.7,2.4,16.1,6.7,1.6,1.3,4.3,3.8,4.5,5.9l-1.2.7c-3.3.7-7.2,1.7-10.6,1.1-7.8-1.3-10.2-7.3-8.8-14.3h0ZM150,48.4c4.1,0,12,.6,15.6,2.1,8.4,3.7,6.1,15.5-.1,20.1-4.1,1.3-7.2,1.7-11.4.7-9.5-2.2-13-18.2-4-23h-.1ZM114.4,53.9c2.2-3.9,11.2-4.7,15.6-5.3,2.2-.4,5-.2,6.5,1.7,3.7,4.9,2.6,14.6-1.9,18.8-3.4,3.1-7.1,2.9-11.4,2.7-8.7-.9-12.8-10.4-8.7-17.9h-.1ZM101.7,57.7h1c.9,0,1.7.5,2.3,1.2,2.6,3.3-.6,8.8-3.5,10.9-4.2,2.9-7.3,2.3-11.9,1.6-1.9-.4-4.3-1.2-6.2-1.7,5.5-5.1,10.8-10.4,18.4-11.9h-.1ZM103.2,229.7c-4.6.2-15.6-.8-14.9-8.5.2-2,2.9-3.9,4.6-5,8.1-.2,21.8,5.8,10.2,13.5h.1ZM137.4,229.7c-.1,1.9-.3,3.3-1.4,4.9-1.5.9-3.4.6-5.2.6-4.2-.3-10.5-1.2-14.4-2.8-4.3-1.7-4.4-6.8-2.2-10.3,1.9-3.1,3.3-3.6,6.6-4.5,8.5-.5,17.4.4,16.5,12h0ZM168.9,229.9c-1.2,2.9-5.8,3.5-8.8,4-3.4.6-8.7,1.8-11.9.7-5.9-2.2-2.7-11.5.7-14.6,1.3-1.1,2.8-1.7,4.4-2.3,6.2-.7,20.6.5,15.7,12.2h0ZM182.7,229.6c-2.4,0-3.5,0-5.5-1.5-2.7-2-2.3-5.4-.4-7.8,2.6-3.3,5.6-3.5,9.4-3.9,6.8-1.3,12.9,10.7-3.4,13.2h-.1ZM212.2,202.4c-3.3,3.5-7.4,6.1-12.1,7.5-13.4,4-52.5,1.1-68.8,1.7-16.8.6-36.8,4.5-52-1.4-22.2-9.7-18.5-42-2.7-56.1,13.4-12,20-19.1,11-36.5,9.3,6.3,14.7,12.4,23.4,19,.9-19.5,18.6-39.9,37.6-44.3l.6.3c-1,2.2-4.5,6-4.6,8.6-.4,14.1,15.6,19.8,27.4,16.5,3.8-1.1,6.2-2.3,9.7-4.1-.2,1.3-.8,4.5-.7,5.6,2.2,12.1,13,17.8,18.7,29.7,4.8-2.7,6.8-4.4,10.1-8.9-3.8,21.1,7.3,25,8.3,45,.3,6.8-1.4,12.3-6.1,17.4h.2Z"/>
  <path d="M170.5,198.1c-8.3,9-17.8,9.1-29.2,9.4-12.2.1-21.8,1.5-30.8-8.5-13.5-14.9-.8-24.3,0-39.2,1.7,1.2,4.4,3.7,7,3.3,5.4-.7,7.7-7,10-11.1,5-8.9,7.3-18.7,18.9-20.1.6.2.3,0,.7.9-8.8,18-2.1,24.4,15.8,16.5l.3,20.4c5.6.8,7.1.8,12.6.1,2.8,10.9,3,19.7-5.1,28.3h-.2Z"/>
</svg>
