<?xml version="1.0" encoding="UTF-8"?>
<svg id="Capa_1" xmlns="http://www.w3.org/2000/svg" version="1.1" viewBox="0 0 283.5 283.5">
  <!-- Generator: Adobe Illustrator 29.0.0, SVG Export Plug-In . SVG Version: 2.1.0 Build 186)  -->
  <defs>
    <style>
      .st0 {
        fill: #f65b7f;
      }
    </style>
  </defs>
  <path d="M138.5,2.4c76.8-1.8,140.4,59,142.5,135.9,2,76.8-58.7,140.6-135.5,142.8C68.5,283.3,4.3,222.4,2.5,145.4.5,68.4,61.5,4.4,138.5,2.6v-.2Z"/>
  <path class="st0" d="M131.8,11.4c72.1-5.5,134.9,48.4,140.4,120.5,5.5,72.1-48.4,134.9-120.3,140.4-72.1,5.5-134.9-48.4-140.4-120.5C6,79.8,59.9,16.9,131.9,11.4h-.2Z"/>
  <path d="M132.9,40.7c55.9-5,105.2,36.5,109.8,92.6,4.8,55.9-36.9,105.1-92.8,109.6-55.7,4.6-104.7-36.9-109.3-92.6-4.8-55.7,36.5-104.7,92.2-109.6h0Z"/>
  <path class="st0" d="M148.6,92.4h.6c-1.1,2.4-4.6,6.2-4.6,8.8-.4,14.1,15.6,19.6,27.3,16.5,3.9-1.1,6.2-2.4,9.7-4-.2,1.3-.9,4.6-.7,5.7,2.2,12.1,13,17.8,18.7,29.5,4.8-2.8,6.8-4.4,10.1-8.8-3.9,21.1,7.3,24.9,8.3,44.9.4,6.8-1.5,12.3-6.1,17.4-3.3,3.5-7.3,6.1-11.9,7.5-13.4,4-52.3,1.1-68.6,1.7-16.7.6-36.7,4.4-51.9-1.5-22-9.5-18.3-41.8-2.8-55.9,13.4-11.9,20-19.1,11-36.3,9.2,6.2,14.7,12.3,23.3,18.9.9-19.4,18.5-39.8,37.4-44.2l.2-.2Z"/>
  <path d="M146.2,131.8c.6.2.4,0,.7.9-8.8,18-2,24.4,15.8,16.3v20.4c5.9.9,7.3.9,12.8,0,2.8,10.8,2.9,19.6-5.1,28.2-8.3,9-17.8,9.2-29.2,9.4-12.1,0-21.6,1.5-30.6-8.4-13.4-14.9-.7-24.2,0-39.1,1.7,1.3,4.4,3.7,7,3.3,5.3-.7,7.7-7,9.9-11.2,5-9,7.3-18.7,18.9-20l-.2.2Z"/>
  <path class="st0" d="M149.9,48.8c4,0,11.9.6,15.6,2.2,8.4,3.7,6.1,15.4,0,20-4,1.3-7.2,1.7-11.4.7-9.4-2.2-13-18.2-4-22.9h-.2Z"/>
  <path class="st0" d="M129.9,49c2.2-.4,5,0,6.4,1.7,3.7,5,2.6,14.5-1.8,18.7-3.3,3.1-7.2,2.9-11.4,2.8-8.6-.9-12.7-10.3-8.6-17.8,2.2-3.9,11.2-4.8,15.6-5.3h-.2Z"/>
  <path class="st0" d="M120.9,217.5c8.4-.6,17.4.4,16.5,11.9,0,1.8-.4,3.3-1.5,5-1.5.9-3.3.6-5.1.6-4.2-.4-10.5-1.1-14.3-2.8-4.2-1.8-4.4-6.8-2.2-10.3,1.8-3.1,3.3-3.7,6.6-4.6v.2Z"/>
  <path class="st0" d="M153.2,217.5c6.2-.7,20.5.6,15.6,12.1-1.3,2.9-5.7,3.5-8.8,4-3.3.6-8.6,1.8-11.9.7-5.9-2.2-2.8-11.4.7-14.5,1.3-1.1,2.8-1.7,4.4-2.2v-.2Z"/>
  <path class="st0" d="M178.5,57.4c6.8,0,10.6,2.4,16.1,6.6,1.7,1.3,4.2,3.9,4.4,5.9l-1.3.7c-3.3.7-7.2,1.7-10.5,1.1-7.7-1.3-10.3-7.3-8.8-14.3Z"/>
  <path class="st0" d="M93.1,216c8.1-.2,21.6,5.7,10.1,13.4-4.6,0-15.6-.7-14.9-8.4.2-2,2.9-3.9,4.6-5h.2Z"/>
  <path class="st0" d="M101.7,58h.9c.9,0,1.7.6,2.2,1.1,2.6,3.3-.6,8.8-3.5,10.8-4.2,2.9-7.2,2.4-11.7,1.7-1.8-.4-4.2-1.1-6.2-1.7,5.5-5.1,10.8-10.5,18.3-11.9h0Z"/>
  <path class="st0" d="M185.8,216.2c6.8-1.3,12.8,10.6-3.5,13-2.4,0-3.5,0-5.5-1.5-2.6-2-2.4-5.3-.4-7.7,2.6-3.3,5.5-3.5,9.4-3.9h0Z"/>
</svg>