<?xml version="1.0" encoding="UTF-8"?>
<svg id="Capa_1" data-name="Capa 1" xmlns="http://www.w3.org/2000/svg" viewBox="0 0 154.44 121.12">
  <defs>
    <style>
      .cls-1 {
        fill: #f65b7f;
      }

      .cls-2 {
        fill: #3fb2eb;
      }
    </style>
  </defs>
  <path class="cls-1" d="M112.1,77.5c-.06.01-.13.02-.19.02t-.01-.02h.2Z"/>
  <path class="cls-2" d="M154.4,92.7c-1-20-12.1-23.9-8.3-45-3.3,4.5-5.3,6.2-10.1,8.9-5.7-11.9-16.5-17.6-18.7-29.7-.1-1.1.5-4.3.7-5.6-3.5,1.8-5.9,3-9.7,4.1-11.8,3.3-27.8-2.4-27.4-16.5.1-2.6,3.6-6.4,4.6-8.6l-.6-.3c-19,4.4-36.7,24.8-37.6,44.3-8.7-6.6-14.1-12.7-23.4-19,9,17.4,2.4,24.5-11,36.5-15.8,14.1-19.5,46.4,2.7,56.1,15.2,5.9,35.2,2,52,1.4,16.3-.6,55.4,2.3,68.8-1.7,4.7-1.4,8.8-4,12.1-7.5h-.2c4.7-5.1,6.4-10.6,6.1-17.4ZM106.8,105.8c-8.3,9-17.8,9.1-29.2,9.4-12.2.1-21.8,1.5-30.8-8.5-13.5-14.9-.8-24.3,0-39.2,1.7,1.2,4.4,3.7,7,3.3,5.4-.7,7.7-7,10-11.1,5-8.9,7.3-18.7,18.9-20.1.6.2.3,0,.7.9-8.8,18-2.1,24.4,15.8,16.5l.3,20.4c5.53.79,7.06.8,12.41.12,2.79,10.89,2.99,19.69-5.11,28.28Z"/>
  <path class="cls-1" d="M112.1,77.5c-.06.01-.13.02-.19.02t-.01-.02h.2Z"/>
</svg>